<svg width="137" height="137" viewBox="0 0 137 137" fill="none" xmlns="http://www.w3.org/2000/svg">
<path d="M60.5225 0C95.9704 0.000215842 125.086 27.1063 128.276 61.7216C128.306 62.0476 128.491 62.3417 128.775 62.5054L135.885 66.6105C136.552 66.9954 136.552 67.9577 135.885 68.3426L128.874 72.3894C128.585 72.5562 128.399 72.8582 128.374 73.1908C125.744 108.368 96.3719 136.091 60.5225 136.091C34.1596 136.091 11.299 121.098 0 99.1748C10.547 116.595 29.6779 128.237 51.5283 128.237C83.522 128.237 109.686 103.277 111.609 71.7671C111.633 71.3724 111.883 71.0237 112.252 70.8817L118.708 68.3971C119.562 68.0683 119.562 66.8594 118.708 66.5306L112.166 64.0128C111.804 63.8733 111.556 63.5342 111.524 63.1471C109.032 32.1932 83.1238 7.84983 51.5283 7.84961C29.6864 7.84967 10.5613 19.4829 0.0117188 36.8916C11.3151 14.9813 34.1694 0.0001161 60.5225 0Z" fill="url(#paint0_linear_1595_10)"/>
<path d="M24.917 44.4941C37.5779 44.4942 47.9813 54.141 49.1857 66.4855C49.2178 66.8142 49.4025 67.1115 49.6885 67.2767L50.6191 67.8142C51.2857 68.1993 51.2855 69.1616 50.6186 69.5463L49.7288 70.0596C49.4373 70.2278 49.2513 70.533 49.2242 70.8685C48.214 83.4101 37.7187 93.2734 24.917 93.2734C17.8793 93.2734 11.5386 90.2914 7.08691 85.5234C11.0719 89.2897 16.4484 91.5996 22.3643 91.5996C34.0215 91.5995 43.5837 82.6321 44.5318 71.2196C44.5644 70.827 44.8128 70.4812 45.1805 70.3396L47.7232 69.3607C48.0065 69.2516 48.1934 68.9794 48.1934 68.6759V68.6759C48.1934 68.3722 48.0063 68.1 47.7229 67.991L45.019 66.9512C44.6722 66.8179 44.4297 66.502 44.3764 66.1343C42.8165 55.3742 33.5567 47.1085 22.3643 47.1084C13.5398 47.1084 5.91608 52.2466 2.32031 59.6943C5.9494 50.7794 14.6982 44.4942 24.917 44.4941Z" fill="url(#paint1_linear_1595_10)"/>
<path d="M39.2549 26.1699C61.1681 26.1701 79.1583 42.9683 81.0504 64.39C81.0795 64.719 81.2649 65.0168 81.5509 65.182L84.5498 66.914C85.2164 67.299 85.2163 68.2613 84.5495 68.646L81.6057 70.3447C81.3142 70.513 81.1276 70.8186 81.1037 71.1543C79.5536 92.9162 61.4114 110.09 39.2549 110.09C22.4564 110.09 7.96538 100.217 1.2627 85.958C7.53838 97.1317 19.5009 104.682 33.2285 104.683C52.1772 104.683 67.7641 90.2985 69.6704 71.8537C69.7097 71.4732 69.956 71.1423 70.3129 71.0049L76.2895 68.7046C77.1438 68.3758 77.1439 67.167 76.2896 66.8381L70.2521 64.5137C69.9004 64.3783 69.6557 64.0548 69.6112 63.6805C67.4543 45.5014 51.9879 31.4033 33.2285 31.4033C19.875 31.4036 8.19052 38.5474 1.78711 49.2217C8.702 35.5465 22.8835 26.1701 39.2549 26.1699Z" fill="url(#paint2_linear_1595_10)"/>
<defs>
<linearGradient id="paint0_linear_1595_10" x1="181.996" y1="63.6847" x2="2.31264" y2="63.6847" gradientUnits="userSpaceOnUse">
<stop offset="0.0103566" stop-color="#FFF500"/>
<stop offset="1" stop-color="#240061"/>
</linearGradient>
<linearGradient id="paint1_linear_1595_10" x1="67.5981" y1="67.3208" x2="4.04806" y2="67.3208" gradientUnits="userSpaceOnUse">
<stop offset="0.0103566" stop-color="#FFF500"/>
<stop offset="1" stop-color="#240061"/>
</linearGradient>
<linearGradient id="paint2_linear_1595_10" x1="113.632" y1="65.4409" x2="3.40658" y2="65.4409" gradientUnits="userSpaceOnUse">
<stop offset="0.0103566" stop-color="#FFF500"/>
<stop offset="1" stop-color="#240061"/>
</linearGradient>
</defs>
</svg>
